{
	"asset":{
		"generator":"Khronos glTF Blender I/O v4.1.63",
		"version":"2.0"
	},
	"scene":0,
	"scenes":[
		{
			"name":"Scene",
			"nodes":[
				11
			]
		}
	],
	"nodes":[
		{
			"mesh":0,
			"name":"1_Material_0"
		},
		{
			"children":[
				0
			],
			"name":"1"
		},
		{
			"mesh":1,
			"name":"Cone",
			"rotation":[
				0,
				0,
				1,
				4.371138828673793e-08
			],
			"scale":[
				1.0536527633666992,
				1.0536527633666992,
				1.0536526441574097
			],
			"translation":[
				0.03478991985321045,
				0.1723041534423828,
				-0.05630922317504883
			]
		},
		{
			"mesh":2,
			"name":"Plane.001",
			"rotation":[
				0,
				-0.35060080885887146,
				0,
				0.9365249872207642
			],
			"scale":[
				0.4300000071525574,
				1,
				12.25
			],
			"translation":[
				-8.58046817779541,
				1.1209626197814941,
				9.947965621948242
			]
		},
		{
			"mesh":3,
			"name":"Plane.002",
			"rotation":[
				0,
				-0.8463830351829529,
				0,
				0.5325748324394226
			],
			"scale":[
				0.429999977350235,
				1,
				12.25
			],
			"translation":[
				-11.634918212890625,
				1.1210002899169922,
				-5.590588569641113
			]
		},
		{
			"mesh":4,
			"name":"Plane.003",
			"rotation":[
				0,
				0.3476131856441498,
				0,
				0.9376380443572998
			],
			"scale":[
				0.4300000071525574,
				1,
				12.25
			],
			"translation":[
				8.322432518005371,
				1.1210002899169922,
				9.792398452758789
			]
		},
		{
			"mesh":5,
			"name":"Plane.004",
			"rotation":[
				0,
				-0.7048013806343079,
				0,
				0.7094047665596008
			],
			"scale":[
				0.43000003695487976,
				1,
				12.250000953674316
			],
			"translation":[
				12.714091300964355,
				1.1210002899169922,
				0.23765277862548828
			]
		},
		{
			"mesh":6,
			"name":"Plane.005",
			"rotation":[
				0,
				-0.2495526820421219,
				0,
				0.9683613181114197
			],
			"scale":[
				0.4300000071525574,
				1,
				12.25
			],
			"translation":[
				5.8044891357421875,
				1.1210002899169922,
				-10.620492935180664
			]
		},
		{
			"children":[
				2,
				3,
				4,
				5,
				6,
				7
			],
			"mesh":7,
			"name":"Cylinder",
			"scale":[
				0.2756583094596863,
				0.650270938873291,
				0.27212417125701904
			],
			"translation":[
				-0.3463701605796814,
				3.4665045738220215,
				-0.73438560962677
			]
		},
		{
			"children":[
				1,
				8
			],
			"name":"RootNode"
		},
		{
			"children":[
				9
			],
			"name":"mi24.fbx",
			"rotation":[
				0.70710688829422,
				0,
				0,
				0.7071066498756409
			],
			"scale":[
				0.010000000707805157,
				0.009999999776482582,
				0.009999999776482582
			]
		},
		{
			"children":[
				10
			],
			"name":"Sketchfab_model",
			"rotation":[
				-0.70710688829422,
				0,
				0,
				0.7071066498756409
			],
			"scale":[
				417.59246826171875,
				417.5924377441406,
				417.5924377441406
			]
		}
	],
	"materials":[
		{
			"doubleSided":true,
			"name":"Material.011",
			"normalTexture":{
				"index":0
			},
			"pbrMetallicRoughness":{
				"baseColorTexture":{
					"index":1
				},
				"metallicFactor":0,
				"roughnessFactor":0.9481942057609558
			}
		},
		{
			"doubleSided":true,
			"name":"Material.013",
			"pbrMetallicRoughness":{
				"baseColorTexture":{
					"index":2
				},
				"metallicFactor":0,
				"roughnessFactor":0.5
			}
		},
		{
			"doubleSided":true,
			"name":"Material.014",
			"pbrMetallicRoughness":{
				"baseColorTexture":{
					"index":3
				},
				"metallicFactor":0,
				"roughnessFactor":0.5
			}
		},
		{
			"doubleSided":true,
			"name":"Material.015",
			"pbrMetallicRoughness":{
				"baseColorTexture":{
					"index":4
				},
				"metallicFactor":0,
				"roughnessFactor":0.5
			}
		},
		{
			"doubleSided":true,
			"name":"Material.016",
			"pbrMetallicRoughness":{
				"baseColorTexture":{
					"index":5
				},
				"metallicFactor":0,
				"roughnessFactor":0.5
			}
		},
		{
			"doubleSided":true,
			"name":"Material.017",
			"pbrMetallicRoughness":{
				"baseColorTexture":{
					"index":6
				},
				"metallicFactor":0,
				"roughnessFactor":0.5
			}
		},
		{
			"doubleSided":true,
			"name":"Material.018",
			"pbrMetallicRoughness":{
				"baseColorTexture":{
					"index":7
				},
				"metallicFactor":0,
				"roughnessFactor":0.5
			}
		},
		{
			"doubleSided":true,
			"name":"Material.012",
			"pbrMetallicRoughness":{
				"baseColorTexture":{
					"index":8
				},
				"metallicFactor":0,
				"roughnessFactor":0.5
			}
		}
	],
	"meshes":[
		{
			"name":"1_Material_0.003",
			"primitives":[
				{
					"attributes":{
						"POSITION":0,
						"NORMAL":1,
						"TEXCOORD_0":2,
						"TEXCOORD_1":3,
						"TEXCOORD_2":4
					},
					"indices":5,
					"material":0
				}
			]
		},
		{
			"name":"Cone.001",
			"primitives":[
				{
					"attributes":{
						"POSITION":6,
						"NORMAL":7,
						"TEXCOORD_0":8
					},
					"indices":9,
					"material":1
				}
			]
		},
		{
			"name":"Plane.007",
			"primitives":[
				{
					"attributes":{
						"POSITION":10,
						"NORMAL":11,
						"TEXCOORD_0":12
					},
					"indices":13,
					"material":2
				}
			]
		},
		{
			"name":"Plane.008",
			"primitives":[
				{
					"attributes":{
						"POSITION":14,
						"NORMAL":15,
						"TEXCOORD_0":16
					},
					"indices":13,
					"material":3
				}
			]
		},
		{
			"name":"Plane.009",
			"primitives":[
				{
					"attributes":{
						"POSITION":17,
						"NORMAL":18,
						"TEXCOORD_0":19
					},
					"indices":13,
					"material":4
				}
			]
		},
		{
			"name":"Plane.010",
			"primitives":[
				{
					"attributes":{
						"POSITION":20,
						"NORMAL":21,
						"TEXCOORD_0":22
					},
					"indices":13,
					"material":5
				}
			]
		},
		{
			"name":"Plane.011",
			"primitives":[
				{
					"attributes":{
						"POSITION":23,
						"NORMAL":24,
						"TEXCOORD_0":25
					},
					"indices":13,
					"material":6
				}
			]
		},
		{
			"name":"Cylinder.002",
			"primitives":[
				{
					"attributes":{
						"POSITION":26,
						"NORMAL":27,
						"TEXCOORD_0":28
					},
					"indices":29,
					"material":7
				}
			]
		}
	],
	"textures":[
		{
			"sampler":0,
			"source":0
		},
		{
			"sampler":0,
			"source":1
		},
		{
			"sampler":0,
			"source":2
		},
		{
			"sampler":0,
			"source":3
		},
		{
			"sampler":0,
			"source":4
		},
		{
			"sampler":0,
			"source":3
		},
		{
			"sampler":0,
			"source":5
		},
		{
			"sampler":0,
			"source":3
		},
		{
			"sampler":0,
			"source":6
		}
	],
	"images":[
		{
			"mimeType":"image/png",
			"name":"Material_normal",
			"uri":"Material_normal.png"
		},
		{
			"mimeType":"image/png",
			"name":"Material_baseColor",
			"uri":"Material_baseColor.png"
		},
		{
			"mimeType":"image/png",
			"name":"Cone Base Color",
			"uri":"Cone%20Base%20Color.png"
		},
		{
			"mimeType":"image/png",
			"name":"Plane",
			"uri":"Plane.png"
		},
		{
			"mimeType":"image/png",
			"name":"Plane-1",
			"uri":"Plane-1.png"
		},
		{
			"mimeType":"image/png",
			"name":"Plane-2",
			"uri":"Plane-2.png"
		},
		{
			"mimeType":"image/png",
			"name":"Cylinder Base Color",
			"uri":"Cylinder%20Base%20Color.png"
		}
	],
	"accessors":[
		{
			"bufferView":0,
			"componentType":5126,
			"count":8159,
			"max":[
				6.586700439453125,
				4.613261699676514,
				3.052253484725952
			],
			"min":[
				-10.819397926330566,
				-0.0056785582564771175,
				-4.484796047210693
			],
			"type":"VEC3"
		},
		{
			"bufferView":1,
			"componentType":5126,
			"count":8159,
			"type":"VEC3"
		},
		{
			"bufferView":2,
			"componentType":5126,
			"count":8159,
			"type":"VEC2"
		},
		{
			"bufferView":3,
			"componentType":5126,
			"count":8159,
			"type":"VEC2"
		},
		{
			"bufferView":4,
			"componentType":5126,
			"count":8159,
			"type":"VEC2"
		},
		{
			"bufferView":5,
			"componentType":5123,
			"count":21459,
			"type":"SCALAR"
		},
		{
			"bufferView":6,
			"componentType":5126,
			"count":128,
			"max":[
				1,
				1,
				1
			],
			"min":[
				-1,
				-1,
				-1
			],
			"type":"VEC3"
		},
		{
			"bufferView":7,
			"componentType":5126,
			"count":128,
			"type":"VEC3"
		},
		{
			"bufferView":8,
			"componentType":5126,
			"count":128,
			"type":"VEC2"
		},
		{
			"bufferView":9,
			"componentType":5123,
			"count":186,
			"type":"SCALAR"
		},
		{
			"bufferView":10,
			"componentType":5126,
			"count":4,
			"max":[
				1,
				0,
				1
			],
			"min":[
				-1,
				0,
				-1
			],
			"type":"VEC3"
		},
		{
			"bufferView":11,
			"componentType":5126,
			"count":4,
			"type":"VEC3"
		},
		{
			"bufferView":12,
			"componentType":5126,
			"count":4,
			"type":"VEC2"
		},
		{
			"bufferView":13,
			"componentType":5123,
			"count":6,
			"type":"SCALAR"
		},
		{
			"bufferView":14,
			"componentType":5126,
			"count":4,
			"max":[
				1,
				0,
				1
			],
			"min":[
				-1,
				0,
				-1
			],
			"type":"VEC3"
		},
		{
			"bufferView":15,
			"componentType":5126,
			"count":4,
			"type":"VEC3"
		},
		{
			"bufferView":16,
			"componentType":5126,
			"count":4,
			"type":"VEC2"
		},
		{
			"bufferView":17,
			"componentType":5126,
			"count":4,
			"max":[
				1,
				0,
				1
			],
			"min":[
				-1,
				0,
				-1
			],
			"type":"VEC3"
		},
		{
			"bufferView":18,
			"componentType":5126,
			"count":4,
			"type":"VEC3"
		},
		{
			"bufferView":19,
			"componentType":5126,
			"count":4,
			"type":"VEC2"
		},
		{
			"bufferView":20,
			"componentType":5126,
			"count":4,
			"max":[
				1,
				0,
				1
			],
			"min":[
				-1,
				0,
				-1
			],
			"type":"VEC3"
		},
		{
			"bufferView":21,
			"componentType":5126,
			"count":4,
			"type":"VEC3"
		},
		{
			"bufferView":22,
			"componentType":5126,
			"count":4,
			"type":"VEC2"
		},
		{
			"bufferView":23,
			"componentType":5126,
			"count":4,
			"max":[
				1,
				0,
				1
			],
			"min":[
				-1,
				0,
				-1
			],
			"type":"VEC3"
		},
		{
			"bufferView":24,
			"componentType":5126,
			"count":4,
			"type":"VEC3"
		},
		{
			"bufferView":25,
			"componentType":5126,
			"count":4,
			"type":"VEC2"
		},
		{
			"bufferView":26,
			"componentType":5126,
			"count":192,
			"max":[
				1,
				1,
				1
			],
			"min":[
				-1,
				-1,
				-1
			],
			"type":"VEC3"
		},
		{
			"bufferView":27,
			"componentType":5126,
			"count":192,
			"type":"VEC3"
		},
		{
			"bufferView":28,
			"componentType":5126,
			"count":192,
			"type":"VEC2"
		},
		{
			"bufferView":29,
			"componentType":5123,
			"count":372,
			"type":"SCALAR"
		}
	],
	"bufferViews":[
		{
			"buffer":0,
			"byteLength":97908,
			"byteOffset":0,
			"target":34962
		},
		{
			"buffer":0,
			"byteLength":97908,
			"byteOffset":97908,
			"target":34962
		},
		{
			"buffer":0,
			"byteLength":65272,
			"byteOffset":195816,
			"target":34962
		},
		{
			"buffer":0,
			"byteLength":65272,
			"byteOffset":261088,
			"target":34962
		},
		{
			"buffer":0,
			"byteLength":65272,
			"byteOffset":326360,
			"target":34962
		},
		{
			"buffer":0,
			"byteLength":42918,
			"byteOffset":391632,
			"target":34963
		},
		{
			"buffer":0,
			"byteLength":1536,
			"byteOffset":434552,
			"target":34962
		},
		{
			"buffer":0,
			"byteLength":1536,
			"byteOffset":436088,
			"target":34962
		},
		{
			"buffer":0,
			"byteLength":1024,
			"byteOffset":437624,
			"target":34962
		},
		{
			"buffer":0,
			"byteLength":372,
			"byteOffset":438648,
			"target":34963
		},
		{
			"buffer":0,
			"byteLength":48,
			"byteOffset":439020,
			"target":34962
		},
		{
			"buffer":0,
			"byteLength":48,
			"byteOffset":439068,
			"target":34962
		},
		{
			"buffer":0,
			"byteLength":32,
			"byteOffset":439116,
			"target":34962
		},
		{
			"buffer":0,
			"byteLength":12,
			"byteOffset":439148,
			"target":34963
		},
		{
			"buffer":0,
			"byteLength":48,
			"byteOffset":439160,
			"target":34962
		},
		{
			"buffer":0,
			"byteLength":48,
			"byteOffset":439208,
			"target":34962
		},
		{
			"buffer":0,
			"byteLength":32,
			"byteOffset":439256,
			"target":34962
		},
		{
			"buffer":0,
			"byteLength":48,
			"byteOffset":439288,
			"target":34962
		},
		{
			"buffer":0,
			"byteLength":48,
			"byteOffset":439336,
			"target":34962
		},
		{
			"buffer":0,
			"byteLength":32,
			"byteOffset":439384,
			"target":34962
		},
		{
			"buffer":0,
			"byteLength":48,
			"byteOffset":439416,
			"target":34962
		},
		{
			"buffer":0,
			"byteLength":48,
			"byteOffset":439464,
			"target":34962
		},
		{
			"buffer":0,
			"byteLength":32,
			"byteOffset":439512,
			"target":34962
		},
		{
			"buffer":0,
			"byteLength":48,
			"byteOffset":439544,
			"target":34962
		},
		{
			"buffer":0,
			"byteLength":48,
			"byteOffset":439592,
			"target":34962
		},
		{
			"buffer":0,
			"byteLength":32,
			"byteOffset":439640,
			"target":34962
		},
		{
			"buffer":0,
			"byteLength":2304,
			"byteOffset":439672,
			"target":34962
		},
		{
			"buffer":0,
			"byteLength":2304,
			"byteOffset":441976,
			"target":34962
		},
		{
			"buffer":0,
			"byteLength":1536,
			"byteOffset":444280,
			"target":34962
		},
		{
			"buffer":0,
			"byteLength":744,
			"byteOffset":445816,
			"target":34963
		}
	],
	"samplers":[
		{
			"magFilter":9729,
			"minFilter":9987
		}
	],
	"buffers":[
		{
			"byteLength":446560,
			"uri":"scene.bin"
		}
	]
}
