{
	"asset":{
		"generator":"Khronos glTF Blender I/O v4.1.63",
		"version":"2.0"
	},
	"scene":0,
	"scenes":[
		{
			"name":"Scene",
			"nodes":[
				0,
				1
			]
		}
	],
	"nodes":[
		{
			"mesh":0,
			"name":"Model001_6_texalm26pershingdif_0.1_0_0"
		},
		{
			"mesh":1,
			"name":"Model001_6_m26pershingtracksdif_0.1_0_0"
		}
	],
	"meshes":[
		{
			"name":"Mesh_0",
			"primitives":[
				{
					"attributes":{
						"POSITION":0,
						"NORMAL":1,
						"TEXCOORD_0":1
					},
					"indices":2
				}
			]
		},
		{
			"name":"Mesh_1",
			"primitives":[
				{
					"attributes":{
						"POSITION":3,
						"NORMAL":4,
						"TEXCOORD_0":4
					},
					"indices":5
				}
			]
		}
	],
	"accessors":[
		{
			"bufferView":0,
			"componentType":5126,
			"count":11286,
			"max":[
				2.428359031677246,
				5.477168083190918,
				7.133531093597412
			],
			"min":[
				-2.4213809967041016,
				0.1119024008512497,
				-5.156799793243408
			],
			"type":"VEC3"
		},
		{
			"bufferView":1,
			"componentType":5126,
			"count":11286,
			"type":"VEC3"
		},
		{
			"bufferView":2,
			"componentType":5123,
			"count":11373,
			"type":"SCALAR"
		},
		{
			"bufferView":3,
			"componentType":5126,
			"count":1897,
			"max":[
				2.3391189575195312,
				1.8155779838562012,
				3.1667098999023438
			],
			"min":[
				-2.3084709644317627,
				0.03605400025844574,
				-4.849090099334717
			],
			"type":"VEC3"
		},
		{
			"bufferView":4,
			"componentType":5126,
			"count":1897,
			"type":"VEC3"
		},
		{
			"bufferView":5,
			"componentType":5123,
			"count":1908,
			"type":"SCALAR"
		}
	],
	"bufferViews":[
		{
			"buffer":0,
			"byteLength":135432,
			"byteOffset":0,
			"target":34962
		},
		{
			"buffer":0,
			"byteLength":135432,
			"byteOffset":135432,
			"target":34962
		},
		{
			"buffer":0,
			"byteLength":22746,
			"byteOffset":270864,
			"target":34963
		},
		{
			"buffer":0,
			"byteLength":22764,
			"byteOffset":293612,
			"target":34962
		},
		{
			"buffer":0,
			"byteLength":22764,
			"byteOffset":316376,
			"target":34962
		},
		{
			"buffer":0,
			"byteLength":3816,
			"byteOffset":339140,
			"target":34963
		}
	],
	"buffers":[
		{
			"byteLength":342956,
			"uri":"tanknotex.bin"
		}
	]
}
