{
	"asset":{
		"generator":"Khronos glTF Blender I/O v4.1.63",
		"version":"2.0"
	},
	"scene":0,
	"scenes":[
		{
			"name":"Scene",
			"nodes":[
				0,
				1
			]
		}
	],
	"nodes":[
		{
			"mesh":0,
			"name":"Model001_6_texalm26pershingdif_0.1_0_0"
		},
		{
			"mesh":1,
			"name":"Model001_6_m26pershingtracksdif_0.1_0_0"
		}
	],
	"materials":[
		{
			"doubleSided":true,
			"name":"Material.042",
			"pbrMetallicRoughness":{
				"baseColorTexture":{
					"index":0
				},
				"metallicFactor":0,
				"roughnessFactor":0.5
			}
		},
		{
			"doubleSided":true,
			"name":"Material.041",
			"pbrMetallicRoughness":{
				"baseColorTexture":{
					"index":1
				},
				"metallicFactor":0,
				"roughnessFactor":0.5
			}
		}
	],
	"meshes":[
		{
			"name":"Mesh_0",
			"primitives":[
				{
					"attributes":{
						"POSITION":0,
						"NORMAL":1,
						"TEXCOORD_0":2
					},
					"indices":3,
					"material":0
				}
			]
		},
		{
			"name":"Mesh_1",
			"primitives":[
				{
					"attributes":{
						"POSITION":4,
						"NORMAL":5,
						"TEXCOORD_0":6
					},
					"indices":7,
					"material":1
				}
			]
		}
	],
	"textures":[
		{
			"sampler":0,
			"source":0
		},
		{
			"sampler":0,
			"source":0
		}
	],
	"images":[
		{
			"mimeType":"image/png",
			"name":"463445252006_baseColor",
			"uri":"463445252006_baseColor.png"
		}
	],
	"accessors":[
		{
			"bufferView":0,
			"componentType":5126,
			"count":9448,
			"max":[
				2.428359031677246,
				5.477168083190918,
				7.133531093597412
			],
			"min":[
				-2.4213809967041016,
				0.1119024008512497,
				-5.156799793243408
			],
			"type":"VEC3"
		},
		{
			"bufferView":1,
			"componentType":5126,
			"count":9448,
			"type":"VEC3"
		},
		{
			"bufferView":2,
			"componentType":5126,
			"count":9448,
			"type":"VEC2"
		},
		{
			"bufferView":3,
			"componentType":5123,
			"count":11373,
			"type":"SCALAR"
		},
		{
			"bufferView":4,
			"componentType":5126,
			"count":1254,
			"max":[
				2.3391189575195312,
				1.8155779838562012,
				3.1667098999023438
			],
			"min":[
				-2.3084709644317627,
				0.03605400025844574,
				-4.849090099334717
			],
			"type":"VEC3"
		},
		{
			"bufferView":5,
			"componentType":5126,
			"count":1254,
			"type":"VEC3"
		},
		{
			"bufferView":6,
			"componentType":5126,
			"count":1254,
			"type":"VEC2"
		},
		{
			"bufferView":7,
			"componentType":5123,
			"count":1908,
			"type":"SCALAR"
		}
	],
	"bufferViews":[
		{
			"buffer":0,
			"byteLength":113376,
			"byteOffset":0,
			"target":34962
		},
		{
			"buffer":0,
			"byteLength":113376,
			"byteOffset":113376,
			"target":34962
		},
		{
			"buffer":0,
			"byteLength":75584,
			"byteOffset":226752,
			"target":34962
		},
		{
			"buffer":0,
			"byteLength":22746,
			"byteOffset":302336,
			"target":34963
		},
		{
			"buffer":0,
			"byteLength":15048,
			"byteOffset":325084,
			"target":34962
		},
		{
			"buffer":0,
			"byteLength":15048,
			"byteOffset":340132,
			"target":34962
		},
		{
			"buffer":0,
			"byteLength":10032,
			"byteOffset":355180,
			"target":34962
		},
		{
			"buffer":0,
			"byteLength":3816,
			"byteOffset":365212,
			"target":34963
		}
	],
	"samplers":[
		{
			"magFilter":9729,
			"minFilter":9987
		}
	],
	"buffers":[
		{
			"byteLength":369028,
			"uri":"tank.bin"
		}
	]
}
