{
	"asset":{
		"generator":"Khronos glTF Blender I/O v4.1.63",
		"version":"2.0"
	},
	"scene":0,
	"scenes":[
		{
			"name":"Scene",
			"nodes":[
				15
			]
		}
	],
	"nodes":[
		{
			"mesh":0,
			"name":"Cube.000_Cube.048"
		},
		{
			"mesh":1,
			"name":"Cube.006_Cube.032"
		},
		{
			"mesh":2,
			"name":"Cube.007_Cube.033"
		},
		{
			"mesh":3,
			"name":"Cube.009_Cube.046"
		},
		{
			"mesh":4,
			"name":"Cube.010_Cube.047"
		},
		{
			"children":[
				3,
				4
			],
			"mesh":5,
			"name":"Cube.008_Cube.045"
		},
		{
			"mesh":6,
			"name":"Cube.014_Cube.097"
		},
		{
			"mesh":7,
			"name":"Cube.051_Cube.065"
		},
		{
			"mesh":8,
			"name":"Cube.070_Cube.071"
		},
		{
			"mesh":9,
			"name":"Cube.086_Cube.087"
		},
		{
			"mesh":10,
			"name":"Cylinder"
		},
		{
			"mesh":11,
			"name":"Cube.003"
		},
		{
			"children":[
				11
			],
			"mesh":12,
			"name":"Cylinder.001_Cylinder.005"
		},
		{
			"mesh":13,
			"name":"Cylinder.003_Cylinder.006"
		},
		{
			"mesh":14,
			"name":"Cylinder.004_Cylinder.007"
		},
		{
			"children":[
				0,
				1,
				2,
				5,
				6,
				7,
				8,
				9,
				10,
				12,
				13,
				14
			],
			"mesh":15,
			"name":"Cube.005_Cube.004"
		}
	],
	"materials":[
		{
			"doubleSided":true,
			"name":"Material.005",
			"pbrMetallicRoughness":{
				"baseColorTexture":{
					"index":0
				},
				"metallicFactor":0,
				"roughnessFactor":0.6900347471237183
			}
		},
		{
			"doubleSided":true,
			"name":"Material.014",
			"pbrMetallicRoughness":{
				"baseColorFactor":[
					0.6399999856948853,
					0.6399999856948853,
					0.6399999856948853,
					1
				],
				"metallicFactor":0,
				"roughnessFactor":0.6900347471237183
			}
		},
		{
			"doubleSided":true,
			"name":"Material.016",
			"pbrMetallicRoughness":{
				"baseColorFactor":[
					0.6399999856948853,
					0.6399999856948853,
					0.6399999856948853,
					1
				],
				"metallicFactor":0,
				"roughnessFactor":0.6900347471237183
			}
		},
		{
			"doubleSided":true,
			"name":"Material.017",
			"pbrMetallicRoughness":{
				"baseColorFactor":[
					0.6399999856948853,
					0.6399999856948853,
					0.6399999856948853,
					1
				],
				"metallicFactor":0,
				"roughnessFactor":0.6900347471237183
			}
		}
	],
	"meshes":[
		{
			"name":"Cube.000_Cube.001",
			"primitives":[
				{
					"attributes":{
						"POSITION":0,
						"NORMAL":1,
						"TEXCOORD_0":2
					},
					"indices":3,
					"material":0
				}
			]
		},
		{
			"name":"Cube.006_Cube.001",
			"primitives":[
				{
					"attributes":{
						"POSITION":4,
						"NORMAL":5,
						"TEXCOORD_0":6
					},
					"indices":7,
					"material":0
				}
			]
		},
		{
			"name":"Cube.007_Cube.001",
			"primitives":[
				{
					"attributes":{
						"POSITION":8,
						"NORMAL":9,
						"TEXCOORD_0":10
					},
					"indices":11,
					"material":0
				}
			]
		},
		{
			"name":"Cube.009_Cube.001",
			"primitives":[
				{
					"attributes":{
						"POSITION":12,
						"NORMAL":13,
						"TEXCOORD_0":14
					},
					"indices":15,
					"material":0
				}
			]
		},
		{
			"name":"Cube.010_Cube.001",
			"primitives":[
				{
					"attributes":{
						"POSITION":16,
						"NORMAL":17,
						"TEXCOORD_0":18
					},
					"indices":19,
					"material":0
				}
			]
		},
		{
			"name":"Cube.008_Cube.001",
			"primitives":[
				{
					"attributes":{
						"POSITION":20,
						"NORMAL":21,
						"TEXCOORD_0":22
					},
					"indices":23,
					"material":0
				},
				{
					"attributes":{
						"POSITION":24,
						"NORMAL":25,
						"TEXCOORD_0":26
					},
					"indices":27,
					"material":1
				}
			]
		},
		{
			"name":"Cube.014_Cube.001",
			"primitives":[
				{
					"attributes":{
						"POSITION":28,
						"NORMAL":29,
						"TEXCOORD_0":30
					},
					"indices":31,
					"material":0
				}
			]
		},
		{
			"name":"Cube.051_Cube.001",
			"primitives":[
				{
					"attributes":{
						"POSITION":32,
						"NORMAL":33,
						"TEXCOORD_0":34
					},
					"indices":35,
					"material":2
				}
			]
		},
		{
			"name":"Cube.070_Cube.001",
			"primitives":[
				{
					"attributes":{
						"POSITION":36,
						"NORMAL":37,
						"TEXCOORD_0":38
					},
					"indices":39,
					"material":2
				}
			]
		},
		{
			"name":"Cube.086_Cube.001",
			"primitives":[
				{
					"attributes":{
						"POSITION":40,
						"NORMAL":41,
						"TEXCOORD_0":42
					},
					"indices":43,
					"material":0
				}
			]
		},
		{
			"name":"Cylinder.001",
			"primitives":[
				{
					"attributes":{
						"POSITION":44,
						"NORMAL":45,
						"TEXCOORD_0":46
					},
					"indices":47,
					"material":0
				}
			]
		},
		{
			"name":"Cube.001",
			"primitives":[
				{
					"attributes":{
						"POSITION":48,
						"NORMAL":49,
						"TEXCOORD_0":50
					},
					"indices":51,
					"material":0
				},
				{
					"attributes":{
						"POSITION":52,
						"NORMAL":53,
						"TEXCOORD_0":54
					},
					"indices":55,
					"material":3
				}
			]
		},
		{
			"name":"Cylinder.001_Cylinder.001",
			"primitives":[
				{
					"attributes":{
						"POSITION":56,
						"NORMAL":57,
						"TEXCOORD_0":58
					},
					"indices":59,
					"material":0
				},
				{
					"attributes":{
						"POSITION":60,
						"NORMAL":61,
						"TEXCOORD_0":62
					},
					"indices":27,
					"material":1
				}
			]
		},
		{
			"name":"Cylinder.003_Cylinder.001",
			"primitives":[
				{
					"attributes":{
						"POSITION":63,
						"NORMAL":64,
						"TEXCOORD_0":65
					},
					"indices":66,
					"material":0
				}
			]
		},
		{
			"name":"Cylinder.004_Cylinder.001",
			"primitives":[
				{
					"attributes":{
						"POSITION":67,
						"NORMAL":68,
						"TEXCOORD_0":69
					},
					"indices":70,
					"material":0
				},
				{
					"attributes":{
						"POSITION":71,
						"NORMAL":72,
						"TEXCOORD_0":73
					},
					"indices":74,
					"material":1
				}
			]
		},
		{
			"name":"Cube.005_Cube.001",
			"primitives":[
				{
					"attributes":{
						"POSITION":75,
						"NORMAL":76,
						"TEXCOORD_0":77
					},
					"indices":78,
					"material":0
				}
			]
		}
	],
	"textures":[
		{
			"sampler":0,
			"source":0
		}
	],
	"images":[
		{
			"mimeType":"image/png",
			"name":"463445252006_baseColor",
			"uri":"463445252006_baseColor.png"
		}
	],
	"accessors":[
		{
			"bufferView":0,
			"componentType":5126,
			"count":224,
			"max":[
				0.530239999294281,
				1.08515202999115,
				-0.6425899863243103
			],
			"min":[
				0.2504560053348541,
				0.8053680062294006,
				-0.6854829788208008
			],
			"type":"VEC3"
		},
		{
			"bufferView":1,
			"componentType":5126,
			"count":224,
			"type":"VEC3"
		},
		{
			"bufferView":2,
			"componentType":5126,
			"count":224,
			"type":"VEC2"
		},
		{
			"bufferView":3,
			"componentType":5123,
			"count":474,
			"type":"SCALAR"
		},
		{
			"bufferView":4,
			"componentType":5126,
			"count":2582,
			"max":[
				0.08131799846887589,
				4.855320930480957,
				-0.33923301100730896
			],
			"min":[
				-0.08094000071287155,
				1.7215499877929688,
				-0.5014920234680176
			],
			"type":"VEC3"
		},
		{
			"bufferView":5,
			"componentType":5126,
			"count":2582,
			"type":"VEC3"
		},
		{
			"bufferView":6,
			"componentType":5126,
			"count":2582,
			"type":"VEC2"
		},
		{
			"bufferView":7,
			"componentType":5123,
			"count":3444,
			"type":"SCALAR"
		},
		{
			"bufferView":8,
			"componentType":5126,
			"count":512,
			"max":[
				0.10587400197982788,
				1.8880350589752197,
				-0.25817999243736267
			],
			"min":[
				-0.10587400197982788,
				1.5181959867477417,
				-0.6477469801902771
			],
			"type":"VEC3"
		},
		{
			"bufferView":9,
			"componentType":5126,
			"count":512,
			"type":"VEC3"
		},
		{
			"bufferView":10,
			"componentType":5126,
			"count":512,
			"type":"VEC2"
		},
		{
			"bufferView":11,
			"componentType":5123,
			"count":1110,
			"type":"SCALAR"
		},
		{
			"bufferView":12,
			"componentType":5126,
			"count":72,
			"max":[
				0.3299509882926941,
				1.0939949750900269,
				-0.7566230297088623
			],
			"min":[
				0.32785698771476746,
				1.031473994255066,
				-0.88121098279953
			],
			"type":"VEC3"
		},
		{
			"bufferView":13,
			"componentType":5126,
			"count":72,
			"type":"VEC3"
		},
		{
			"bufferView":14,
			"componentType":5126,
			"count":72,
			"type":"VEC2"
		},
		{
			"bufferView":15,
			"componentType":5123,
			"count":156,
			"type":"SCALAR"
		},
		{
			"bufferView":16,
			"componentType":5126,
			"count":64,
			"max":[
				0.45283499360084534,
				1.0939899682998657,
				-0.7566230297088623
			],
			"min":[
				0.4507409930229187,
				1.0314689874649048,
				-0.88121098279953
			],
			"type":"VEC3"
		},
		{
			"bufferView":17,
			"componentType":5126,
			"count":64,
			"type":"VEC3"
		},
		{
			"bufferView":18,
			"componentType":5126,
			"count":64,
			"type":"VEC2"
		},
		{
			"bufferView":19,
			"componentType":5123,
			"count":156,
			"type":"SCALAR"
		},
		{
			"bufferView":20,
			"componentType":5126,
			"count":1288,
			"max":[
				0.530239999294281,
				1.08515202999115,
				-0.656499981880188
			],
			"min":[
				0.2504560053348541,
				0.8053680062294006,
				-0.9096019864082336
			],
			"type":"VEC3"
		},
		{
			"bufferView":21,
			"componentType":5126,
			"count":1288,
			"type":"VEC3"
		},
		{
			"bufferView":22,
			"componentType":5126,
			"count":1288,
			"type":"VEC2"
		},
		{
			"bufferView":23,
			"componentType":5123,
			"count":2769,
			"type":"SCALAR"
		},
		{
			"bufferView":24,
			"componentType":5126,
			"count":49,
			"max":[
				0.4528700113296509,
				1.0219019651412964,
				-0.7566230297088623
			],
			"min":[
				0.32782799005508423,
				1.0219019651412964,
				-0.88121098279953
			],
			"type":"VEC3"
		},
		{
			"bufferView":25,
			"componentType":5126,
			"count":49,
			"type":"VEC3"
		},
		{
			"bufferView":26,
			"componentType":5126,
			"count":49,
			"type":"VEC2"
		},
		{
			"bufferView":27,
			"componentType":5123,
			"count":216,
			"type":"SCALAR"
		},
		{
			"bufferView":28,
			"componentType":5126,
			"count":164,
			"max":[
				1.159021019935608,
				0.05242900177836418,
				-0.3206869959831238
			],
			"min":[
				1.0165669918060303,
				-0.718612015247345,
				-0.5871400237083435
			],
			"type":"VEC3"
		},
		{
			"bufferView":29,
			"componentType":5126,
			"count":164,
			"type":"VEC3"
		},
		{
			"bufferView":30,
			"componentType":5126,
			"count":164,
			"type":"VEC2"
		},
		{
			"bufferView":31,
			"componentType":5123,
			"count":324,
			"type":"SCALAR"
		},
		{
			"bufferView":32,
			"componentType":5126,
			"count":2301,
			"max":[
				1.196092963218689,
				0.2961679995059967,
				-0.35418999195098877
			],
			"min":[
				1.025913953781128,
				0.05343100056052208,
				-0.6073520183563232
			],
			"type":"VEC3"
		},
		{
			"bufferView":33,
			"componentType":5126,
			"count":2301,
			"type":"VEC3"
		},
		{
			"bufferView":34,
			"componentType":5126,
			"count":2301,
			"type":"VEC2"
		},
		{
			"bufferView":35,
			"componentType":5123,
			"count":5832,
			"type":"SCALAR"
		},
		{
			"bufferView":36,
			"componentType":5126,
			"count":2305,
			"max":[
				-1.01848304271698,
				0.2961679995059967,
				-0.35418999195098877
			],
			"min":[
				-1.188662052154541,
				0.05343100056052208,
				-0.6073520183563232
			],
			"type":"VEC3"
		},
		{
			"bufferView":37,
			"componentType":5126,
			"count":2305,
			"type":"VEC3"
		},
		{
			"bufferView":38,
			"componentType":5126,
			"count":2305,
			"type":"VEC2"
		},
		{
			"bufferView":39,
			"componentType":5123,
			"count":5832,
			"type":"SCALAR"
		},
		{
			"bufferView":40,
			"componentType":5126,
			"count":162,
			"max":[
				-1.0149680376052856,
				0.05080199986696243,
				-0.3206869959831238
			],
			"min":[
				-1.1574219465255737,
				-0.720238983631134,
				-0.5871400237083435
			],
			"type":"VEC3"
		},
		{
			"bufferView":41,
			"componentType":5126,
			"count":162,
			"type":"VEC3"
		},
		{
			"bufferView":42,
			"componentType":5126,
			"count":162,
			"type":"VEC2"
		},
		{
			"bufferView":43,
			"componentType":5123,
			"count":324,
			"type":"SCALAR"
		},
		{
			"bufferView":44,
			"componentType":5126,
			"count":576,
			"max":[
				0.5807710289955139,
				0.6791380047798157,
				-0.6372799873352051
			],
			"min":[
				0.0025160000659525394,
				0.10088299959897995,
				-0.6864889860153198
			],
			"type":"VEC3"
		},
		{
			"bufferView":45,
			"componentType":5126,
			"count":576,
			"type":"VEC3"
		},
		{
			"bufferView":46,
			"componentType":5126,
			"count":576,
			"type":"VEC2"
		},
		{
			"bufferView":47,
			"componentType":5123,
			"count":1140,
			"type":"SCALAR"
		},
		{
			"bufferView":48,
			"componentType":5126,
			"count":122,
			"max":[
				-0.3673129975795746,
				-0.14200599491596222,
				-1.1602590084075928
			],
			"min":[
				-0.45392999053001404,
				-0.47804901003837585,
				-1.2357620000839233
			],
			"type":"VEC3"
		},
		{
			"bufferView":49,
			"componentType":5126,
			"count":122,
			"type":"VEC3"
		},
		{
			"bufferView":50,
			"componentType":5126,
			"count":122,
			"type":"VEC2"
		},
		{
			"bufferView":51,
			"componentType":5123,
			"count":276,
			"type":"SCALAR"
		},
		{
			"bufferView":52,
			"componentType":5126,
			"count":1235,
			"max":[
				-0.3934440016746521,
				0.06344600021839142,
				-1.1813850402832031
			],
			"min":[
				-0.4270080029964447,
				-0.34734800457954407,
				-1.2149490118026733
			],
			"type":"VEC3"
		},
		{
			"bufferView":53,
			"componentType":5126,
			"count":1235,
			"type":"VEC3"
		},
		{
			"bufferView":54,
			"componentType":5126,
			"count":1235,
			"type":"VEC2"
		},
		{
			"bufferView":55,
			"componentType":5123,
			"count":1908,
			"type":"SCALAR"
		},
		{
			"bufferView":56,
			"componentType":5126,
			"count":1249,
			"max":[
				-0.18807899951934814,
				0.1429319977760315,
				-0.6892910003662109
			],
			"min":[
				-0.6334009766578674,
				-0.49970799684524536,
				-1.236875057220459
			],
			"type":"VEC3"
		},
		{
			"bufferView":57,
			"componentType":5126,
			"count":1249,
			"type":"VEC3"
		},
		{
			"bufferView":58,
			"componentType":5126,
			"count":1249,
			"type":"VEC2"
		},
		{
			"bufferView":59,
			"componentType":5123,
			"count":2523,
			"type":"SCALAR"
		},
		{
			"bufferView":60,
			"componentType":5126,
			"count":49,
			"max":[
				-0.32410499453544617,
				0.02238300070166588,
				-0.8624950051307678
			],
			"min":[
				-0.4973750114440918,
				0.02238300070166588,
				-1.0208510160446167
			],
			"type":"VEC3"
		},
		{
			"bufferView":61,
			"componentType":5126,
			"count":49,
			"type":"VEC3"
		},
		{
			"bufferView":62,
			"componentType":5126,
			"count":49,
			"type":"VEC2"
		},
		{
			"bufferView":63,
			"componentType":5126,
			"count":352,
			"max":[
				-0.18807899951934814,
				0.1429319977760315,
				-0.6481419801712036
			],
			"min":[
				-0.6334009766578674,
				-0.2995370030403137,
				-0.7329779863357544
			],
			"type":"VEC3"
		},
		{
			"bufferView":64,
			"componentType":5126,
			"count":352,
			"type":"VEC3"
		},
		{
			"bufferView":65,
			"componentType":5126,
			"count":352,
			"type":"VEC2"
		},
		{
			"bufferView":66,
			"componentType":5123,
			"count":666,
			"type":"SCALAR"
		},
		{
			"bufferView":67,
			"componentType":5126,
			"count":988,
			"max":[
				-0.18196499347686768,
				0.9755499958992004,
				-0.6390299797058105
			],
			"min":[
				-0.6781780123710632,
				0.47933700680732727,
				-0.768884003162384
			],
			"type":"VEC3"
		},
		{
			"bufferView":68,
			"componentType":5126,
			"count":988,
			"type":"VEC3"
		},
		{
			"bufferView":69,
			"componentType":5126,
			"count":988,
			"type":"VEC2"
		},
		{
			"bufferView":70,
			"componentType":5123,
			"count":1908,
			"type":"SCALAR"
		},
		{
			"bufferView":71,
			"componentType":5126,
			"count":64,
			"max":[
				-0.22284699976444244,
				0.9346680045127869,
				-0.7108240127563477
			],
			"min":[
				-0.6372960209846497,
				0.5202199816703796,
				-0.7495009899139404
			],
			"type":"VEC3"
		},
		{
			"bufferView":72,
			"componentType":5126,
			"count":64,
			"type":"VEC3"
		},
		{
			"bufferView":73,
			"componentType":5126,
			"count":64,
			"type":"VEC2"
		},
		{
			"bufferView":74,
			"componentType":5123,
			"count":96,
			"type":"SCALAR"
		},
		{
			"bufferView":75,
			"componentType":5126,
			"count":4204,
			"max":[
				1.014706015586853,
				1.8880350589752197,
				-0.22354400157928467
			],
			"min":[
				-1.014706015586853,
				-1.1340090036392212,
				-0.6827600002288818
			],
			"type":"VEC3"
		},
		{
			"bufferView":76,
			"componentType":5126,
			"count":4204,
			"type":"VEC3"
		},
		{
			"bufferView":77,
			"componentType":5126,
			"count":4204,
			"type":"VEC2"
		},
		{
			"bufferView":78,
			"componentType":5123,
			"count":7944,
			"type":"SCALAR"
		}
	],
	"bufferViews":[
		{
			"buffer":0,
			"byteLength":2688,
			"byteOffset":0,
			"target":34962
		},
		{
			"buffer":0,
			"byteLength":2688,
			"byteOffset":2688,
			"target":34962
		},
		{
			"buffer":0,
			"byteLength":1792,
			"byteOffset":5376,
			"target":34962
		},
		{
			"buffer":0,
			"byteLength":948,
			"byteOffset":7168,
			"target":34963
		},
		{
			"buffer":0,
			"byteLength":30984,
			"byteOffset":8116,
			"target":34962
		},
		{
			"buffer":0,
			"byteLength":30984,
			"byteOffset":39100,
			"target":34962
		},
		{
			"buffer":0,
			"byteLength":20656,
			"byteOffset":70084,
			"target":34962
		},
		{
			"buffer":0,
			"byteLength":6888,
			"byteOffset":90740,
			"target":34963
		},
		{
			"buffer":0,
			"byteLength":6144,
			"byteOffset":97628,
			"target":34962
		},
		{
			"buffer":0,
			"byteLength":6144,
			"byteOffset":103772,
			"target":34962
		},
		{
			"buffer":0,
			"byteLength":4096,
			"byteOffset":109916,
			"target":34962
		},
		{
			"buffer":0,
			"byteLength":2220,
			"byteOffset":114012,
			"target":34963
		},
		{
			"buffer":0,
			"byteLength":864,
			"byteOffset":116232,
			"target":34962
		},
		{
			"buffer":0,
			"byteLength":864,
			"byteOffset":117096,
			"target":34962
		},
		{
			"buffer":0,
			"byteLength":576,
			"byteOffset":117960,
			"target":34962
		},
		{
			"buffer":0,
			"byteLength":312,
			"byteOffset":118536,
			"target":34963
		},
		{
			"buffer":0,
			"byteLength":768,
			"byteOffset":118848,
			"target":34962
		},
		{
			"buffer":0,
			"byteLength":768,
			"byteOffset":119616,
			"target":34962
		},
		{
			"buffer":0,
			"byteLength":512,
			"byteOffset":120384,
			"target":34962
		},
		{
			"buffer":0,
			"byteLength":312,
			"byteOffset":120896,
			"target":34963
		},
		{
			"buffer":0,
			"byteLength":15456,
			"byteOffset":121208,
			"target":34962
		},
		{
			"buffer":0,
			"byteLength":15456,
			"byteOffset":136664,
			"target":34962
		},
		{
			"buffer":0,
			"byteLength":10304,
			"byteOffset":152120,
			"target":34962
		},
		{
			"buffer":0,
			"byteLength":5538,
			"byteOffset":162424,
			"target":34963
		},
		{
			"buffer":0,
			"byteLength":588,
			"byteOffset":167964,
			"target":34962
		},
		{
			"buffer":0,
			"byteLength":588,
			"byteOffset":168552,
			"target":34962
		},
		{
			"buffer":0,
			"byteLength":392,
			"byteOffset":169140,
			"target":34962
		},
		{
			"buffer":0,
			"byteLength":432,
			"byteOffset":169532,
			"target":34963
		},
		{
			"buffer":0,
			"byteLength":1968,
			"byteOffset":169964,
			"target":34962
		},
		{
			"buffer":0,
			"byteLength":1968,
			"byteOffset":171932,
			"target":34962
		},
		{
			"buffer":0,
			"byteLength":1312,
			"byteOffset":173900,
			"target":34962
		},
		{
			"buffer":0,
			"byteLength":648,
			"byteOffset":175212,
			"target":34963
		},
		{
			"buffer":0,
			"byteLength":27612,
			"byteOffset":175860,
			"target":34962
		},
		{
			"buffer":0,
			"byteLength":27612,
			"byteOffset":203472,
			"target":34962
		},
		{
			"buffer":0,
			"byteLength":18408,
			"byteOffset":231084,
			"target":34962
		},
		{
			"buffer":0,
			"byteLength":11664,
			"byteOffset":249492,
			"target":34963
		},
		{
			"buffer":0,
			"byteLength":27660,
			"byteOffset":261156,
			"target":34962
		},
		{
			"buffer":0,
			"byteLength":27660,
			"byteOffset":288816,
			"target":34962
		},
		{
			"buffer":0,
			"byteLength":18440,
			"byteOffset":316476,
			"target":34962
		},
		{
			"buffer":0,
			"byteLength":11664,
			"byteOffset":334916,
			"target":34963
		},
		{
			"buffer":0,
			"byteLength":1944,
			"byteOffset":346580,
			"target":34962
		},
		{
			"buffer":0,
			"byteLength":1944,
			"byteOffset":348524,
			"target":34962
		},
		{
			"buffer":0,
			"byteLength":1296,
			"byteOffset":350468,
			"target":34962
		},
		{
			"buffer":0,
			"byteLength":648,
			"byteOffset":351764,
			"target":34963
		},
		{
			"buffer":0,
			"byteLength":6912,
			"byteOffset":352412,
			"target":34962
		},
		{
			"buffer":0,
			"byteLength":6912,
			"byteOffset":359324,
			"target":34962
		},
		{
			"buffer":0,
			"byteLength":4608,
			"byteOffset":366236,
			"target":34962
		},
		{
			"buffer":0,
			"byteLength":2280,
			"byteOffset":370844,
			"target":34963
		},
		{
			"buffer":0,
			"byteLength":1464,
			"byteOffset":373124,
			"target":34962
		},
		{
			"buffer":0,
			"byteLength":1464,
			"byteOffset":374588,
			"target":34962
		},
		{
			"buffer":0,
			"byteLength":976,
			"byteOffset":376052,
			"target":34962
		},
		{
			"buffer":0,
			"byteLength":552,
			"byteOffset":377028,
			"target":34963
		},
		{
			"buffer":0,
			"byteLength":14820,
			"byteOffset":377580,
			"target":34962
		},
		{
			"buffer":0,
			"byteLength":14820,
			"byteOffset":392400,
			"target":34962
		},
		{
			"buffer":0,
			"byteLength":9880,
			"byteOffset":407220,
			"target":34962
		},
		{
			"buffer":0,
			"byteLength":3816,
			"byteOffset":417100,
			"target":34963
		},
		{
			"buffer":0,
			"byteLength":14988,
			"byteOffset":420916,
			"target":34962
		},
		{
			"buffer":0,
			"byteLength":14988,
			"byteOffset":435904,
			"target":34962
		},
		{
			"buffer":0,
			"byteLength":9992,
			"byteOffset":450892,
			"target":34962
		},
		{
			"buffer":0,
			"byteLength":5046,
			"byteOffset":460884,
			"target":34963
		},
		{
			"buffer":0,
			"byteLength":588,
			"byteOffset":465932,
			"target":34962
		},
		{
			"buffer":0,
			"byteLength":588,
			"byteOffset":466520,
			"target":34962
		},
		{
			"buffer":0,
			"byteLength":392,
			"byteOffset":467108,
			"target":34962
		},
		{
			"buffer":0,
			"byteLength":4224,
			"byteOffset":467500,
			"target":34962
		},
		{
			"buffer":0,
			"byteLength":4224,
			"byteOffset":471724,
			"target":34962
		},
		{
			"buffer":0,
			"byteLength":2816,
			"byteOffset":475948,
			"target":34962
		},
		{
			"buffer":0,
			"byteLength":1332,
			"byteOffset":478764,
			"target":34963
		},
		{
			"buffer":0,
			"byteLength":11856,
			"byteOffset":480096,
			"target":34962
		},
		{
			"buffer":0,
			"byteLength":11856,
			"byteOffset":491952,
			"target":34962
		},
		{
			"buffer":0,
			"byteLength":7904,
			"byteOffset":503808,
			"target":34962
		},
		{
			"buffer":0,
			"byteLength":3816,
			"byteOffset":511712,
			"target":34963
		},
		{
			"buffer":0,
			"byteLength":768,
			"byteOffset":515528,
			"target":34962
		},
		{
			"buffer":0,
			"byteLength":768,
			"byteOffset":516296,
			"target":34962
		},
		{
			"buffer":0,
			"byteLength":512,
			"byteOffset":517064,
			"target":34962
		},
		{
			"buffer":0,
			"byteLength":192,
			"byteOffset":517576,
			"target":34963
		},
		{
			"buffer":0,
			"byteLength":50448,
			"byteOffset":517768,
			"target":34962
		},
		{
			"buffer":0,
			"byteLength":50448,
			"byteOffset":568216,
			"target":34962
		},
		{
			"buffer":0,
			"byteLength":33632,
			"byteOffset":618664,
			"target":34962
		},
		{
			"buffer":0,
			"byteLength":15888,
			"byteOffset":652296,
			"target":34963
		}
	],
	"samplers":[
		{
			"magFilter":9729,
			"minFilter":9987
		}
	],
	"buffers":[
		{
			"byteLength":668184,
			"uri":"tankHead.bin"
		}
	]
}
