{
	"asset":{
		"generator":"Khronos glTF Blender I/O v4.1.63",
		"version":"2.0"
	},
	"scene":0,
	"scenes":[
		{
			"name":"Scene",
			"nodes":[
				7
			]
		}
	],
	"nodes":[
		{
			"mesh":0,
			"name":"Cylinder_Material.001_0"
		},
		{
			"mesh":1,
			"name":"Cylinder_Material.002_0"
		},
		{
			"mesh":2,
			"name":"Cylinder_Material.003_0"
		},
		{
			"mesh":3,
			"name":"Cylinder_Material_0"
		},
		{
			"children":[
				0,
				1,
				2,
				3
			],
			"name":"Cylinder",
			"rotation":[
				-0.70710688829422,
				0,
				0,
				0.7071066498756409
			],
			"scale":[
				424.3227844238281,
				424.32275390625,
				424.32275390625
			],
			"translation":[
				0,
				-13.79691219329834,
				0
			]
		},
		{
			"children":[
				4
			],
			"name":"RootNode"
		},
		{
			"children":[
				5
			],
			"name":"a71d994e0d2f40ab8dfa0b0147efe2ce.fbx",
			"rotation":[
				0.70710688829422,
				0,
				0,
				0.7071066498756409
			],
			"scale":[
				0.009999999776482582,
				0.010000000707805157,
				0.010000000707805157
			]
		},
		{
			"children":[
				6
			],
			"name":"Sketchfab_model",
			"rotation":[
				-0.70710688829422,
				0,
				0,
				0.7071066498756409
			]
		}
	],
	"materials":[
		{
			"doubleSided":true,
			"name":"Material.005",
			"pbrMetallicRoughness":{
				"baseColorFactor":[
					1,
					0.8564019799232483,
					0.0211861003190279,
					1
				],
				"metallicFactor":0,
				"roughnessFactor":0.7385971546173096
			}
		},
		{
			"doubleSided":true,
			"name":"Material.007",
			"pbrMetallicRoughness":{
				"baseColorTexture":{
					"index":0
				},
				"metallicFactor":0
			}
		},
		{
			"doubleSided":true,
			"name":"Material.012",
			"pbrMetallicRoughness":{
				"baseColorFactor":[
					0.800000011920929,
					0.6748669743537903,
					0,
					1
				],
				"metallicFactor":0,
				"roughnessFactor":0.7935839295387268
			}
		},
		{
			"doubleSided":true,
			"name":"Material.009",
			"pbrMetallicRoughness":{
				"baseColorFactor":[
					0,
					0,
					0,
					1
				],
				"metallicFactor":0
			}
		}
	],
	"meshes":[
		{
			"name":"Cylinder_Material.001_0.001",
			"primitives":[
				{
					"attributes":{
						"POSITION":0,
						"NORMAL":1,
						"TEXCOORD_0":2
					},
					"indices":3,
					"material":0
				}
			]
		},
		{
			"name":"Cylinder_Material.002_0.001",
			"primitives":[
				{
					"attributes":{
						"POSITION":4,
						"NORMAL":5,
						"TEXCOORD_0":6
					},
					"indices":7,
					"material":1
				}
			]
		},
		{
			"name":"Cylinder_Material.003_0.001",
			"primitives":[
				{
					"attributes":{
						"POSITION":8,
						"NORMAL":9,
						"TEXCOORD_0":10
					},
					"indices":11,
					"material":2
				}
			]
		},
		{
			"name":"Cylinder_Material_0.001",
			"primitives":[
				{
					"attributes":{
						"POSITION":12,
						"NORMAL":13,
						"TEXCOORD_0":14
					},
					"indices":15,
					"material":3
				}
			]
		}
	],
	"textures":[
		{
			"sampler":0,
			"source":0
		}
	],
	"images":[
		{
			"mimeType":"image/jpeg",
			"name":"black_baseColor",
			"uri":"black_baseColor.jpg"
		}
	],
	"accessors":[
		{
			"bufferView":0,
			"componentType":5126,
			"count":270,
			"max":[
				1,
				1,
				-0.29174625873565674
			],
			"min":[
				-1,
				-1,
				-0.32664361596107483
			],
			"type":"VEC3"
		},
		{
			"bufferView":1,
			"componentType":5126,
			"count":270,
			"type":"VEC3"
		},
		{
			"bufferView":2,
			"componentType":5126,
			"count":270,
			"type":"VEC2"
		},
		{
			"bufferView":3,
			"componentType":5123,
			"count":474,
			"type":"SCALAR"
		},
		{
			"bufferView":4,
			"componentType":5126,
			"count":32,
			"max":[
				0.8744258880615234,
				0.8744259476661682,
				-0.29174625873565674
			],
			"min":[
				-0.8744258880615234,
				-0.8744258880615234,
				-0.29174625873565674
			],
			"type":"VEC3"
		},
		{
			"bufferView":5,
			"componentType":5126,
			"count":32,
			"type":"VEC3"
		},
		{
			"bufferView":6,
			"componentType":5126,
			"count":32,
			"type":"VEC2"
		},
		{
			"bufferView":7,
			"componentType":5123,
			"count":90,
			"type":"SCALAR"
		},
		{
			"bufferView":8,
			"componentType":5126,
			"count":65,
			"max":[
				0.4698368310928345,
				0.5372013449668884,
				-0.2872348725795746
			],
			"min":[
				-0.41471365094184875,
				-0.5065069794654846,
				-0.3025384843349457
			],
			"type":"VEC3"
		},
		{
			"bufferView":9,
			"componentType":5126,
			"count":65,
			"type":"VEC3"
		},
		{
			"bufferView":10,
			"componentType":5126,
			"count":65,
			"type":"VEC2"
		},
		{
			"bufferView":11,
			"componentType":5123,
			"count":132,
			"type":"SCALAR"
		},
		{
			"bufferView":12,
			"componentType":5126,
			"count":24,
			"max":[
				1.2856048345565796,
				1.2856048345565796,
				-0.2958091199398041
			],
			"min":[
				-1.2856048345565796,
				-1.2856048345565796,
				-0.3430902063846588
			],
			"type":"VEC3"
		},
		{
			"bufferView":13,
			"componentType":5126,
			"count":24,
			"type":"VEC3"
		},
		{
			"bufferView":14,
			"componentType":5126,
			"count":24,
			"type":"VEC2"
		},
		{
			"bufferView":15,
			"componentType":5123,
			"count":36,
			"type":"SCALAR"
		}
	],
	"bufferViews":[
		{
			"buffer":0,
			"byteLength":3240,
			"byteOffset":0,
			"target":34962
		},
		{
			"buffer":0,
			"byteLength":3240,
			"byteOffset":3240,
			"target":34962
		},
		{
			"buffer":0,
			"byteLength":2160,
			"byteOffset":6480,
			"target":34962
		},
		{
			"buffer":0,
			"byteLength":948,
			"byteOffset":8640,
			"target":34963
		},
		{
			"buffer":0,
			"byteLength":384,
			"byteOffset":9588,
			"target":34962
		},
		{
			"buffer":0,
			"byteLength":384,
			"byteOffset":9972,
			"target":34962
		},
		{
			"buffer":0,
			"byteLength":256,
			"byteOffset":10356,
			"target":34962
		},
		{
			"buffer":0,
			"byteLength":180,
			"byteOffset":10612,
			"target":34963
		},
		{
			"buffer":0,
			"byteLength":780,
			"byteOffset":10792,
			"target":34962
		},
		{
			"buffer":0,
			"byteLength":780,
			"byteOffset":11572,
			"target":34962
		},
		{
			"buffer":0,
			"byteLength":520,
			"byteOffset":12352,
			"target":34962
		},
		{
			"buffer":0,
			"byteLength":264,
			"byteOffset":12872,
			"target":34963
		},
		{
			"buffer":0,
			"byteLength":288,
			"byteOffset":13136,
			"target":34962
		},
		{
			"buffer":0,
			"byteLength":288,
			"byteOffset":13424,
			"target":34962
		},
		{
			"buffer":0,
			"byteLength":192,
			"byteOffset":13712,
			"target":34962
		},
		{
			"buffer":0,
			"byteLength":72,
			"byteOffset":13904,
			"target":34963
		}
	],
	"samplers":[
		{
			"magFilter":9729,
			"minFilter":9987
		}
	],
	"buffers":[
		{
			"byteLength":13976,
			"uri":"heliport.bin"
		}
	]
}
